<mxfile host="app.diagrams.net" modified="2024-07-10T10:00:42.642Z" agent="Mozilla/5.0 (Macintosh; Intel Mac OS X 10_15_7) AppleWebKit/537.36 (KHTML, like Gecko) Chrome/126.0.0.0 Safari/537.36" version="24.6.4" etag="TR8YYZMf4KwhEr-Uzxw2" type="github">
  <diagram name="第 1 页" id="scgNxB5An9s1YBmZ5G7x">
    <mxGraphModel>
      <root>
        <mxCell id="0" />
        <mxCell id="1" parent="0" />
      </root>
    </mxGraphModel>
  </diagram>
</mxfile>
